<svg width="72" height="72" viewBox="0 0 72 72" fill="none" xmlns="http://www.w3.org/2000/svg">
<rect width="72" height="72" rx="36" fill="#FBFBFB"/>
<path d="M36 37.5C39.416 37.5 42.1875 34.4766 42.1875 30.75C42.1875 27.0234 39.416 24 36 24C32.584 24 29.8125 27.0234 29.8125 30.75C29.8125 34.4766 32.584 37.5 36 37.5ZM41.5 39H39.1324C38.1785 39.4781 37.1172 39.75 36 39.75C34.8828 39.75 33.8258 39.4781 32.8676 39H30.5C27.4621 39 25 41.6859 25 45V45.75C25 46.9922 25.9238 48 27.0625 48H44.9375C46.0762 48 47 46.9922 47 45.75V45C47 41.6859 44.5379 39 41.5 39Z" fill="#DDDDDD"/>
</svg>
